<svg width="18" height="17" viewBox="0 0 18 17" fill="none" xmlns="http://www.w3.org/2000/svg">
    <path
        d="M9.00083 0.666687C4.39665 0.666687 0.66748 4.39585 0.66748 9.00002C0.66748 12.6875 3.0529 15.8021 6.3654 16.9063C6.78206 16.9792 6.93831 16.7292 6.93831 16.5104C6.93831 16.3125 6.9279 15.6563 6.9279 14.9584C4.83415 15.3438 4.29248 14.4479 4.12581 13.9792C4.03206 13.7396 3.62581 13 3.27165 12.8021C2.97998 12.6459 2.56331 12.2604 3.26123 12.25C3.91748 12.2396 4.38623 12.8542 4.54248 13.1042C5.29248 14.3646 6.4904 14.0104 6.96956 13.7917C7.04248 13.25 7.26123 12.8854 7.50083 12.6771C5.64665 12.4688 3.70915 11.75 3.70915 8.56252C3.70915 7.65627 4.03206 6.90627 4.56331 6.32294C4.47998 6.1146 4.18831 5.26044 4.64665 4.1146C4.64665 4.1146 5.34456 3.89585 6.93831 4.96877C7.605 4.78127 8.31333 4.68752 9.02166 4.68752C9.73 4.68752 10.4383 4.78127 11.105 4.96877C12.6987 3.88544 13.3967 4.1146 13.3967 4.1146C13.855 5.26044 13.5633 6.1146 13.48 6.32294C14.0112 6.90627 14.3342 7.64585 14.3342 8.56252C14.3342 11.7604 12.3862 12.4688 10.5321 12.6771C10.8342 12.9375 11.0946 13.4375 11.0946 14.2188C11.0946 15.3334 11.0842 16.2292 11.0842 16.5104C11.0842 16.7292 11.2404 16.9896 11.6571 16.9063C15.0492 15.7611 17.3332 12.5803 17.3342 9.00002C17.3342 4.39585 13.605 0.666687 9.00083 0.666687Z"
        fill="#4338CA" />
</svg>
